<mxfile host="app.diagrams.net" modified="2024-06-25T14:31:39.318Z" agent="Mozilla/5.0 (Windows NT 10.0; Win64; x64) AppleWebKit/537.36 (KHTML, like Gecko) Chrome/126.0.0.0 Safari/537.36 Edg/126.0.0.0" version="24.5.5" etag="rj8t_eHT1HkNOhQ7zBWR" type="github">
  <diagram name="第 1 页" id="hhbXoSk5H8mb7GVBW43r">
    <mxGraphModel>
      <root>
        <mxCell id="0" />
        <mxCell id="1" parent="0" />
      </root>
    </mxGraphModel>
  </diagram>
</mxfile>
